<svg width="160" height="19" viewBox="0 0 160 19" fill="none" xmlns="http://www.w3.org/2000/svg">
<path d="M3.74609 0.9375L9.32422 14.8594L14.9023 0.9375H17.8203V18H15.5703V11.3555L15.7812 4.18359L10.1797 18H8.45703L2.86719 4.21875L3.08984 11.3555V18H0.839844V0.9375H3.74609ZM21.5 16.8633C21.5 16.4883 21.6094 16.1758 21.8281 15.9258C22.0547 15.6758 22.3906 15.5508 22.8359 15.5508C23.2812 15.5508 23.6172 15.6758 23.8438 15.9258C24.0781 16.1758 24.1953 16.4883 24.1953 16.8633C24.1953 17.2227 24.0781 17.5234 23.8438 17.7656C23.6172 18.0078 23.2812 18.1289 22.8359 18.1289C22.3906 18.1289 22.0547 18.0078 21.8281 17.7656C21.6094 17.5234 21.5 17.2227 21.5 16.8633ZM47.1875 18H44.9258L36.3359 4.85156V18H34.0742V0.9375H36.3359L44.9492 14.1445V0.9375H47.1875V18ZM53.1992 18H51.0312V5.32031H53.1992V18ZM50.8555 1.95703C50.8555 1.60547 50.9609 1.30859 51.1719 1.06641C51.3906 0.824219 51.7109 0.703125 52.1328 0.703125C52.5547 0.703125 52.875 0.824219 53.0938 1.06641C53.3125 1.30859 53.4219 1.60547 53.4219 1.95703C53.4219 2.30859 53.3125 2.60156 53.0938 2.83594C52.875 3.07031 52.5547 3.1875 52.1328 3.1875C51.7109 3.1875 51.3906 3.07031 51.1719 2.83594C50.9609 2.60156 50.8555 2.30859 50.8555 1.95703ZM58.7305 5.32031L58.8008 6.91406C59.7695 5.69531 61.0352 5.08594 62.5977 5.08594C65.2773 5.08594 66.6289 6.59766 66.6523 9.62109V18H64.4844V9.60938C64.4766 8.69531 64.2656 8.01953 63.8516 7.58203C63.4453 7.14453 62.8086 6.92578 61.9414 6.92578C61.2383 6.92578 60.6211 7.11328 60.0898 7.48828C59.5586 7.86328 59.1445 8.35547 58.8477 8.96484V18H56.6797V5.32031H58.7305ZM69.3945 11.5547C69.3945 9.60938 69.8555 8.04688 70.7773 6.86719C71.6992 5.67969 72.9062 5.08594 74.3984 5.08594C75.8828 5.08594 77.0586 5.59375 77.9258 6.60938V0H80.0938V18H78.1016L77.9961 16.6406C77.1289 17.7031 75.9219 18.2344 74.375 18.2344C72.9062 18.2344 71.707 17.6328 70.7773 16.4297C69.8555 15.2266 69.3945 13.6562 69.3945 11.7188V11.5547ZM71.5625 11.8008C71.5625 13.2383 71.8594 14.3633 72.4531 15.1758C73.0469 15.9883 73.8672 16.3945 74.9141 16.3945C76.2891 16.3945 77.293 15.7773 77.9258 14.543V8.71875C77.2773 7.52344 76.2812 6.92578 74.9375 6.92578C73.875 6.92578 73.0469 7.33594 72.4531 8.15625C71.8594 8.97656 71.5625 10.1914 71.5625 11.8008ZM89.5977 7.26562C89.2695 7.21094 88.9141 7.18359 88.5312 7.18359C87.1094 7.18359 86.1445 7.78906 85.6367 9V18H83.4688V5.32031H85.5781L85.6133 6.78516C86.3242 5.65234 87.332 5.08594 88.6367 5.08594C89.0586 5.08594 89.3789 5.14062 89.5977 5.25V7.26562ZM98.9609 18C98.8359 17.75 98.7344 17.3047 98.6562 16.6641C97.6484 17.7109 96.4453 18.2344 95.0469 18.2344C93.7969 18.2344 92.7695 17.8828 91.9648 17.1797C91.168 16.4688 90.7695 15.5703 90.7695 14.4844C90.7695 13.1641 91.2695 12.1406 92.2695 11.4141C93.2773 10.6797 94.6914 10.3125 96.5117 10.3125H98.6211V9.31641C98.6211 8.55859 98.3945 7.95703 97.9414 7.51172C97.4883 7.05859 96.8203 6.83203 95.9375 6.83203C95.1641 6.83203 94.5156 7.02734 93.9922 7.41797C93.4688 7.80859 93.207 8.28125 93.207 8.83594H91.0273C91.0273 8.20312 91.25 7.59375 91.6953 7.00781C92.1484 6.41406 92.7578 5.94531 93.5234 5.60156C94.2969 5.25781 95.1445 5.08594 96.0664 5.08594C97.5273 5.08594 98.6719 5.45312 99.5 6.1875C100.328 6.91406 100.758 7.91797 100.789 9.19922V15.0352C100.789 16.1992 100.938 17.125 101.234 17.8125V18H98.9609ZM95.3633 16.3477C96.043 16.3477 96.6875 16.1719 97.2969 15.8203C97.9062 15.4688 98.3477 15.0117 98.6211 14.4492V11.8477H96.9219C94.2656 11.8477 92.9375 12.625 92.9375 14.1797C92.9375 14.8594 93.1641 15.3906 93.6172 15.7734C94.0703 16.1562 94.6523 16.3477 95.3633 16.3477ZM112.168 16.1602H121.93V18H109.508V16.3125L118.859 2.78906H109.66V0.9375H121.555V2.58984L112.168 16.1602ZM132.336 18C132.211 17.75 132.109 17.3047 132.031 16.6641C131.023 17.7109 129.82 18.2344 128.422 18.2344C127.172 18.2344 126.145 17.8828 125.34 17.1797C124.543 16.4688 124.145 15.5703 124.145 14.4844C124.145 13.1641 124.645 12.1406 125.645 11.4141C126.652 10.6797 128.066 10.3125 129.887 10.3125H131.996V9.31641C131.996 8.55859 131.77 7.95703 131.316 7.51172C130.863 7.05859 130.195 6.83203 129.312 6.83203C128.539 6.83203 127.891 7.02734 127.367 7.41797C126.844 7.80859 126.582 8.28125 126.582 8.83594H124.402C124.402 8.20312 124.625 7.59375 125.07 7.00781C125.523 6.41406 126.133 5.94531 126.898 5.60156C127.672 5.25781 128.52 5.08594 129.441 5.08594C130.902 5.08594 132.047 5.45312 132.875 6.1875C133.703 6.91406 134.133 7.91797 134.164 9.19922V15.0352C134.164 16.1992 134.312 17.125 134.609 17.8125V18H132.336ZM128.738 16.3477C129.418 16.3477 130.062 16.1719 130.672 15.8203C131.281 15.4688 131.723 15.0117 131.996 14.4492V11.8477H130.297C127.641 11.8477 126.312 12.625 126.312 14.1797C126.312 14.8594 126.539 15.3906 126.992 15.7734C127.445 16.1562 128.027 16.3477 128.738 16.3477ZM141.102 12.1289L139.742 13.5469V18H137.574V0H139.742V10.8867L140.902 9.49219L144.852 5.32031H147.488L142.555 10.6172L148.062 18H145.52L141.102 12.1289ZM157.555 18C157.43 17.75 157.328 17.3047 157.25 16.6641C156.242 17.7109 155.039 18.2344 153.641 18.2344C152.391 18.2344 151.363 17.8828 150.559 17.1797C149.762 16.4688 149.363 15.5703 149.363 14.4844C149.363 13.1641 149.863 12.1406 150.863 11.4141C151.871 10.6797 153.285 10.3125 155.105 10.3125H157.215V9.31641C157.215 8.55859 156.988 7.95703 156.535 7.51172C156.082 7.05859 155.414 6.83203 154.531 6.83203C153.758 6.83203 153.109 7.02734 152.586 7.41797C152.062 7.80859 151.801 8.28125 151.801 8.83594H149.621C149.621 8.20312 149.844 7.59375 150.289 7.00781C150.742 6.41406 151.352 5.94531 152.117 5.60156C152.891 5.25781 153.738 5.08594 154.66 5.08594C156.121 5.08594 157.266 5.45312 158.094 6.1875C158.922 6.91406 159.352 7.91797 159.383 9.19922V15.0352C159.383 16.1992 159.531 17.125 159.828 17.8125V18H157.555ZM153.957 16.3477C154.637 16.3477 155.281 16.1719 155.891 15.8203C156.5 15.4688 156.941 15.0117 157.215 14.4492V11.8477H155.516C152.859 11.8477 151.531 12.625 151.531 14.1797C151.531 14.8594 151.758 15.3906 152.211 15.7734C152.664 16.1562 153.246 16.3477 153.957 16.3477Z" fill="black"/>
</svg>
